<svg width="55" height="55" viewBox="0 0 55 55" fill="none" xmlns="http://www.w3.org/2000/svg">
<circle cx="25" cy="25" r="24" fill="#F5F5F5" stroke="#F05050" stroke-width="2"/>
<path d="M34.7066 20.6578C35.4106 20.6578 35.9834 20.0871 35.9834 19.3854C35.9834 18.6839 35.4106 18.113 34.7066 18.113H33.2876C32.6269 17.1019 31.7288 16.2545 30.6778 15.6535C30.3148 15.4458 29.9354 15.2692 29.5444 15.1243V11.7291C29.5444 11.5104 29.3665 11.333 29.1468 11.333H24.61C24.3905 11.333 24.2125 11.5104 24.2125 11.7291V15.1243C23.8214 15.2692 23.4423 15.4458 23.079 15.6533C22.0282 16.2543 21.13 17.1019 20.4692 18.113H19.0505C18.3462 18.113 17.7734 18.6839 17.7734 19.3854C17.7734 20.0869 18.3462 20.6578 19.0505 20.6578H19.2361V22.0209C19.2361 22.2396 19.4139 22.417 19.6336 22.417C19.8531 22.417 20.031 22.2396 20.031 22.0209V20.6578H33.7258V22.8007C32.8098 22.1993 31.7341 21.874 30.6231 21.874C27.5106 21.874 24.9784 24.397 24.9784 27.498C24.9784 30.5994 27.5106 33.1226 30.6231 33.1226C31.7341 33.1226 32.8098 32.7973 33.7258 32.1959V35.455H20.0312V23.3413C20.0312 23.1226 19.8531 22.9452 19.6336 22.9452C19.4141 22.9452 19.2361 23.1226 19.2361 23.3413V35.455H19.0505C18.3464 35.455 17.7734 36.0259 17.7734 36.7274C17.7734 37.4289 18.3464 37.9998 19.0505 37.9998H32.2134C32.4329 37.9998 32.6109 37.8223 32.6109 37.6036C32.6109 37.3849 32.4329 37.2075 32.2134 37.2075H19.0505C18.7846 37.2075 18.5686 36.9921 18.5686 36.7274C18.5686 36.4627 18.7848 36.2472 19.0505 36.2472H34.7066C34.9722 36.2472 35.1885 36.4627 35.1885 36.7274C35.1885 36.9921 34.9722 37.2075 34.7066 37.2075H33.5384C33.3189 37.2075 33.1408 37.3849 33.1408 37.6036C33.1408 37.8223 33.3189 37.9998 33.5384 37.9998H34.7066C35.4106 37.9998 35.9834 37.4289 35.9834 36.7274C35.9834 36.0259 35.4106 35.455 34.7066 35.455H34.521V20.6578H34.7066ZM30.6231 32.3304C27.949 32.3304 25.7735 30.1626 25.7735 27.498C25.7735 24.8338 27.949 22.6663 30.6231 22.6663C31.7609 22.6663 32.8556 23.063 33.7258 23.7856V31.211C32.8556 31.9337 31.7609 32.3304 30.6231 32.3304ZM28.7492 12.2239V13.724C28.4795 13.5813 28.2951 13.299 28.2951 12.9738C28.2951 12.6489 28.4795 12.3665 28.7492 12.2239ZM25.0076 12.1252H27.7379C27.587 12.3731 27.5 12.6636 27.5 12.9738C27.5 13.7421 28.0327 14.3884 28.7492 14.5663V14.8792C28.1405 14.7264 27.512 14.647 26.8788 14.647C26.2452 14.647 25.6167 14.7264 25.0076 14.8792V12.1252ZM23.4749 16.3403C24.5057 15.7509 25.6827 15.4393 26.8786 15.4393C28.0744 15.4393 29.2513 15.7509 30.2821 16.3403C31.0699 16.7912 31.7617 17.3967 32.3136 18.113H21.4434C21.9953 17.3967 22.6869 16.791 23.4749 16.3403ZM19.0505 19.8655C18.7846 19.8655 18.5686 19.6501 18.5686 19.3854C18.5686 19.1207 18.7848 18.9053 19.0505 18.9053H34.7066C34.9722 18.9053 35.1885 19.1207 35.1885 19.3854C35.1885 19.6501 34.9722 19.8655 34.7066 19.8655H19.0505Z" fill="black"/>
<path d="M32.1524 13.2487C32.1896 13.2487 32.2276 13.2434 32.2652 13.2324L36.0816 12.109C36.2921 12.0471 36.4123 11.8268 36.3503 11.617C36.288 11.4073 36.0671 11.2874 35.8563 11.3493L32.0399 12.4725C31.8294 12.5346 31.7091 12.7549 31.7712 12.9647C31.8223 13.137 31.9807 13.2487 32.1524 13.2487Z" fill="black"/>
<path d="M36.0816 15.0683L32.2652 13.9451C32.0548 13.883 31.8335 14.0029 31.7712 14.2126C31.7091 14.4224 31.8294 14.6427 32.0399 14.7048L35.8563 15.828C35.8939 15.839 35.9319 15.8443 35.969 15.8443C36.1408 15.8443 36.299 15.7326 36.3503 15.5603C36.4123 15.3505 36.2921 15.1302 36.0816 15.0683Z" fill="black"/>
<circle cx="45" cy="45" r="10" fill="#F05050"/>
<path d="M41.5303 40.4697C41.2374 40.1768 40.7626 40.1768 40.4697 40.4697C40.1768 40.7626 40.1768 41.2374 40.4697 41.5303L41.5303 40.4697ZM48.4697 49.5303C48.7626 49.8232 49.2374 49.8232 49.5303 49.5303C49.8232 49.2374 49.8232 48.7626 49.5303 48.4697L48.4697 49.5303ZM40.4697 41.5303L48.4697 49.5303L49.5303 48.4697L41.5303 40.4697L40.4697 41.5303Z" fill="white"/>
<path d="M49 41L41 49" stroke="white" stroke-width="1.5" stroke-linecap="round" stroke-linejoin="round"/>
</svg>
