<svg width="55" height="55" viewBox="0 0 55 55" fill="none" xmlns="http://www.w3.org/2000/svg">
<circle cx="25" cy="25" r="24" fill="#F5F5F5" stroke="#FF6C6C" stroke-width="2"/>
<path d="M14.2188 22.9688V35.9688C14.2191 36.2919 14.3476 36.6017 14.5761 36.8301C14.8046 37.0586 15.1144 37.1871 15.4375 37.1875H21.125C21.4481 37.1871 21.7579 37.0586 21.9864 36.8301C22.2149 36.6017 22.3434 36.2919 22.3438 35.9688V22.9688C22.3438 22.9153 22.3333 22.8624 22.3129 22.8131C22.2924 22.7638 22.2624 22.719 22.2246 22.6813L19.9609 20.4176C20.084 20.0046 20.3125 19.149 20.3125 18.5C20.3125 17.971 20.1605 17.3048 20.0378 16.8528C20.1179 16.8254 20.1874 16.7737 20.2367 16.7048C20.2859 16.6359 20.3124 16.5534 20.3125 16.4688V14.0312C20.3121 13.7081 20.1836 13.3984 19.9551 13.1699C19.7266 12.9414 19.4169 12.8129 19.0938 12.8125H17.4688C17.1456 12.8129 16.8359 12.9414 16.6074 13.1699C16.3789 13.3984 16.2504 13.7081 16.25 14.0312V16.4688C16.2501 16.5534 16.2766 16.6359 16.3258 16.7048C16.3751 16.7737 16.4446 16.8254 16.5247 16.8528C16.402 17.3048 16.25 17.971 16.25 18.5C16.25 19.149 16.4785 20.0046 16.6016 20.4176L14.3379 22.6813C14.3001 22.719 14.2701 22.7638 14.2496 22.8131C14.2292 22.8624 14.2187 22.9153 14.2188 22.9688ZM17.0625 14.0312C17.0626 13.9235 17.1055 13.8203 17.1816 13.7441C17.2578 13.668 17.361 13.6251 17.4688 13.625H19.0938C19.2015 13.6251 19.3047 13.668 19.3809 13.7441C19.457 13.8203 19.4999 13.9235 19.5 14.0312V14.4375H17.0625V14.0312ZM17.0625 15.25H19.5V16.0625H17.0625V15.25ZM17.3628 16.875H19.1998C19.3134 17.2646 19.5 17.9837 19.5 18.5C19.5 19.0151 19.3132 19.7349 19.1997 20.125H17.3627C17.2491 19.7354 17.0625 19.0163 17.0625 18.5C17.0625 17.9849 17.2493 17.2651 17.3628 16.875ZM17.2307 20.9375H19.3318L20.9568 22.5625H15.6057L17.2307 20.9375ZM15.0313 23.375H21.5312V24.1875H15.0313V23.375ZM15.0313 25H21.5312V33.9375H15.0313V25ZM15.0313 34.75H21.5312V35.9688C21.5311 36.0765 21.4883 36.1797 21.4121 36.2559C21.336 36.332 21.2327 36.3749 21.125 36.375H15.4375C15.3298 36.3749 15.2265 36.332 15.1504 36.2559C15.0742 36.1797 15.0314 36.0765 15.0313 35.9688V34.75Z" fill="black"/>
<path d="M23.1563 25.4063V35.9437C23.1566 36.2735 23.2878 36.5896 23.5209 36.8228C23.7541 37.056 24.0702 37.1871 24.4 37.1875H29.225C29.5548 37.1871 29.8709 37.056 30.1041 36.8228C30.3372 36.5896 30.4684 36.2735 30.4688 35.9437V25.4063C30.4699 24.8835 30.3584 24.3667 30.1417 23.891C29.9251 23.4153 29.6084 22.9919 29.2132 22.6496L28.451 16.5514C28.5749 16.4375 28.6737 16.2991 28.7413 16.145C28.8089 15.9909 28.8438 15.8245 28.8438 15.6563V15.25C28.9055 15.25 28.9664 15.2359 29.0219 15.2089C29.0774 15.1818 29.126 15.1424 29.164 15.0938C29.2019 15.0451 29.2284 14.9884 29.2412 14.928C29.254 14.8676 29.2528 14.8051 29.2379 14.7452L28.9855 13.7357C28.9198 13.4718 28.7677 13.2376 28.5534 13.0703C28.3392 12.903 28.075 12.8122 27.8032 12.8125H25.8219C25.55 12.8122 25.2859 12.9029 25.0716 13.0703C24.8573 13.2376 24.7052 13.4718 24.6395 13.7357L24.3871 14.7452C24.3722 14.8051 24.3711 14.8676 24.3839 14.928C24.3967 14.9884 24.4231 15.0451 24.4611 15.0938C24.4991 15.1424 24.5476 15.1818 24.6031 15.2089C24.6586 15.2359 24.7195 15.25 24.7813 15.25V15.6563C24.7812 15.8245 24.8161 15.991 24.8837 16.145C24.9513 16.2991 25.0502 16.4375 25.1741 16.5514L24.4117 22.6496C24.0166 22.9919 23.6999 23.4153 23.4833 23.891C23.2666 24.3667 23.1551 24.8835 23.1563 25.4063ZM25.4278 13.9327C25.4496 13.8448 25.5003 13.7667 25.5718 13.7109C25.6432 13.6552 25.7312 13.6249 25.8219 13.625H27.8032C27.8938 13.6249 27.9818 13.6552 28.0533 13.7109C28.1247 13.7667 28.1754 13.8448 28.1973 13.9327L28.3235 14.4375H25.3016L25.4278 13.9327ZM28.0313 15.25V15.6563C28.0311 15.764 27.9883 15.8672 27.9121 15.9434C27.836 16.0195 27.7327 16.0624 27.625 16.0625H26C25.8923 16.0624 25.789 16.0195 25.7129 15.9434C25.6367 15.8672 25.5939 15.764 25.5938 15.6563V15.25H28.0313ZM25.0474 23.1776C25.1308 23.1114 25.1849 23.0153 25.1981 22.9097L25.9525 16.8738C25.9683 16.8744 25.9841 16.875 26 16.875H27.625C27.6409 16.875 27.6567 16.8744 27.6725 16.8738L28.4269 22.9097C28.4402 23.0153 28.4943 23.1114 28.5776 23.1776C28.9145 23.443 29.1867 23.7816 29.3736 24.1677C29.5604 24.5538 29.6571 24.9773 29.6563 25.4063V35.9437C29.6562 36.0581 29.6107 36.1677 29.5299 36.2486C29.449 36.3294 29.3394 36.3749 29.225 36.375H24.4C24.2856 36.3749 24.176 36.3294 24.0952 36.2486C24.0143 36.1677 23.9689 36.0581 23.9688 35.9437V25.4063C23.9679 24.9773 24.0646 24.5538 24.2515 24.1677C24.4383 23.7816 24.7105 23.443 25.0474 23.1776Z" fill="black"/>
<path d="M31.2812 24.1875V35.9688C31.2816 36.2919 31.4101 36.6017 31.6386 36.8301C31.8671 37.0586 32.1769 37.1871 32.5 37.1875H36.5625C36.8856 37.1871 37.1954 37.0586 37.4239 36.8301C37.6524 36.6017 37.7809 36.2919 37.7812 35.9688V24.1875C37.7794 23.6174 37.6284 23.0576 37.3434 22.5639C37.0583 22.0701 36.6491 21.6595 36.1562 21.3728V16.875H36.5625C36.6702 16.875 36.7736 16.8322 36.8498 16.756C36.9259 16.6798 36.9688 16.5765 36.9688 16.4688V14.8438C36.9688 14.736 36.9259 14.6327 36.8498 14.5565C36.7736 14.4803 36.6702 14.4375 36.5625 14.4375V14.0312C36.5621 13.7081 36.4336 13.3984 36.2051 13.1699C35.9766 12.9414 35.6669 12.8129 35.3438 12.8125H33.7188C33.3956 12.8129 33.0859 12.9414 32.8574 13.1699C32.6289 13.3984 32.5004 13.7081 32.5 14.0312V14.4375C32.3923 14.4375 32.2889 14.4803 32.2127 14.5565C32.1366 14.6327 32.0938 14.736 32.0938 14.8438V16.4688C32.0938 16.5765 32.1366 16.6798 32.2127 16.756C32.2889 16.8322 32.3923 16.875 32.5 16.875H32.9062V21.3728C32.4134 21.6595 32.0042 22.0701 31.7191 22.5639C31.4341 23.0576 31.2831 23.6174 31.2812 24.1875ZM36.9688 35.9688C36.9686 36.0765 36.9258 36.1797 36.8496 36.2559C36.7735 36.332 36.6702 36.3749 36.5625 36.375H32.5C32.3923 36.3749 32.289 36.332 32.2129 36.2559C32.1367 36.1797 32.0939 36.0765 32.0938 35.9688V34.75H36.9688V35.9688ZM36.9688 24.1875V33.9375H32.0938V24.1875H36.9688ZM33.3125 14.0312C33.3126 13.9235 33.3555 13.8203 33.4316 13.7441C33.5078 13.668 33.611 13.6251 33.7188 13.625H35.3438C35.4515 13.6251 35.5547 13.668 35.6309 13.7441C35.707 13.8203 35.7499 13.9235 35.75 14.0312V14.4375H33.3125V14.0312ZM32.9062 15.25H36.1562V16.0625H32.9062V15.25ZM35.3438 16.875V19.3125H33.7188V16.875H35.3438ZM33.4869 21.9848C33.5563 21.9518 33.6149 21.8998 33.6559 21.8349C33.6969 21.77 33.7187 21.6948 33.7188 21.618V20.125H35.3438V21.618C35.3437 21.6948 35.3655 21.7701 35.4066 21.835C35.4476 21.9 35.5062 21.952 35.5756 21.985C36.1603 22.2646 36.6104 22.7644 36.8274 23.375H32.2351C32.4521 22.7643 32.9022 22.2644 33.4869 21.9848Z" fill="black"/>
<path d="M18.2812 25.8125C17.8504 25.813 17.4374 25.9843 17.1327 26.289C16.8281 26.5936 16.6567 27.0067 16.6562 27.4375V31.5C16.6562 31.931 16.8275 32.3443 17.1322 32.649C17.4369 32.9538 17.8503 33.125 18.2812 33.125C18.7122 33.125 19.1256 32.9538 19.4303 32.649C19.735 32.3443 19.9062 31.931 19.9062 31.5V27.4375C19.9058 27.0067 19.7344 26.5936 19.4298 26.289C19.1251 25.9843 18.7121 25.813 18.2812 25.8125ZM19.0938 31.5C19.0938 31.7155 19.0081 31.9222 18.8558 32.0745C18.7034 32.2269 18.4967 32.3125 18.2812 32.3125C18.0658 32.3125 17.8591 32.2269 17.7067 32.0745C17.5544 31.9222 17.4688 31.7155 17.4688 31.5V27.4375C17.4688 27.222 17.5544 27.0153 17.7067 26.863C17.8591 26.7106 18.0658 26.625 18.2812 26.625C18.4967 26.625 18.7034 26.7106 18.8558 26.863C19.0081 27.0153 19.0938 27.222 19.0938 27.4375V31.5Z" fill="black"/>
<path d="M26.8131 33.1379C27.4144 33.1379 27.9557 32.7175 28.3375 31.9541C28.6729 31.2832 28.8577 30.4002 28.8577 29.4684C28.8577 28.5365 28.6729 27.6536 28.3375 26.9826C27.9557 26.2192 27.4144 25.7988 26.8131 25.7988C26.2119 25.7988 25.6705 26.2192 25.2888 26.9826C24.9533 27.6536 24.7686 28.5365 24.7686 29.4684C24.7686 30.4002 24.9533 31.2832 25.2888 31.9541C25.6705 32.7175 26.2119 33.1379 26.8131 33.1379ZM26.8131 26.6379C27.3819 26.6379 28.0185 27.8484 28.0185 29.4684C28.0185 31.0884 27.3821 32.2988 26.8131 32.2988C26.2441 32.2988 25.6077 31.0883 25.6077 29.4684C25.6077 27.8485 26.2444 26.6379 26.8131 26.6379Z" fill="black"/>
<circle cx="45" cy="45" r="10" fill="#F05050"/>
<path d="M41.5303 40.4697C41.2374 40.1768 40.7626 40.1768 40.4697 40.4697C40.1768 40.7626 40.1768 41.2374 40.4697 41.5303L41.5303 40.4697ZM48.4697 49.5303C48.7626 49.8232 49.2374 49.8232 49.5303 49.5303C49.8232 49.2374 49.8232 48.7626 49.5303 48.4697L48.4697 49.5303ZM40.4697 41.5303L48.4697 49.5303L49.5303 48.4697L41.5303 40.4697L40.4697 41.5303Z" fill="white"/>
<path d="M49 41L41 49" stroke="white" stroke-width="1.5" stroke-linecap="round" stroke-linejoin="round"/>
</svg>
