<svg width="15" height="15" viewBox="0 0 15 15" fill="none" xmlns="http://www.w3.org/2000/svg">
<path d="M1 4.01325V10.4265C1 10.8199 1.23067 11.1767 1.58938 11.3383L7.5 14M1 4.01325L7.5 6.9404M1 4.01325L3.6 2.80795M14 4.01325L7.92058 1.19497C7.65383 1.07131 7.34617 1.07131 7.07942 1.19497L5.37394 1.98559M14 4.01325V10.4265C14 10.8199 13.7693 11.1767 13.4106 11.3383L7.5 14M14 4.01325L11.8492 4.98047M7.5 14C7.5 11.2431 7.5 9.69734 7.5 6.9404M7.5 6.9404L10.0133 5.80857M3.6 2.80795L10.0133 5.80857M3.6 2.80795L5.37394 1.98559M10.0133 5.80857L9.92992 5.76954M5.37394 1.98559L11.8492 4.98047M11.8492 4.98047V6.71517C11.8492 7.10458 11.6139 7.45538 11.2535 7.60309V7.60309C10.6221 7.86193 9.92992 7.39758 9.92992 6.71517V5.76954M11.8492 4.98047L9.92992 5.76954" stroke="#565656" stroke-width="0.9" stroke-linecap="round" stroke-linejoin="round"/>
</svg>
