<svg width="55" height="55" viewBox="0 0 55 55" fill="none" xmlns="http://www.w3.org/2000/svg">
<circle cx="25" cy="25" r="24" fill="#F5F5F5" stroke="#FF6C6C" stroke-width="2"/>
<g clip-path="url(#clip0)">
<path d="M18.6953 28.9051C18.8895 28.9051 19.0469 28.7477 19.0469 28.5535V27.7801H19.8203C20.0145 27.7801 20.1719 27.6227 20.1719 27.4285C20.1719 27.2343 20.0145 27.0769 19.8203 27.0769H19.0469V26.3035C19.0469 26.1093 18.8895 25.9519 18.6953 25.9519C18.5012 25.9519 18.3438 26.1093 18.3438 26.3035V27.0769H17.5703C17.3762 27.0769 17.2188 27.2343 17.2188 27.4285C17.2188 27.6227 17.3762 27.7801 17.5703 27.7801H18.3438V28.5535C18.3438 28.7477 18.5012 28.9051 18.6953 28.9051ZM23.4022 29.6657C23.2677 30.0133 23.4217 30.399 23.7604 30.5629C24.0274 30.6922 24.332 30.6662 24.6123 30.4009C25.5138 29.548 26.4286 28.6831 27.3279 27.83C27.5056 27.6614 27.592 27.4337 27.5648 27.2053C27.5372 26.9743 27.3975 26.7705 27.1813 26.6462C26.7566 26.4021 26.3332 26.1558 25.9092 25.9105C26.1408 25.3667 26.38 24.8069 26.5975 24.2453C26.6817 24.028 26.6529 23.7837 26.5204 23.5919C26.2512 23.2024 25.7348 23.1798 25.387 23.5108C24.4776 24.3761 23.5776 25.2236 22.6723 26.0813C22.4965 26.2478 22.4098 26.4739 22.4344 26.7018C22.4588 26.9275 22.5899 27.1276 22.794 27.2508C23.2255 27.5114 23.6602 27.7566 24.0912 28.0029C23.8481 28.5843 23.6235 29.0937 23.4022 29.6657ZM24.2783 29.3801C24.4641 28.937 24.6477 28.4916 24.841 28.034C24.9107 27.8692 24.8831 27.6467 24.6646 27.521C24.1628 27.2326 23.6559 26.9496 23.1575 26.6489C23.122 26.6275 23.123 26.6228 23.1558 26.5916C24.1181 25.68 25.843 24.0304 25.9216 23.9799C25.9363 23.9834 25.9412 23.9905 25.9419 23.9914C25.6961 24.6251 25.4231 25.2549 25.1597 25.8769C25.0757 26.0753 25.146 26.2817 25.3346 26.3906C25.8335 26.6786 26.3312 26.9688 26.8307 27.2559C26.8579 27.2715 26.862 27.3028 26.8439 27.3199C25.8872 28.227 24.161 29.8874 24.0728 29.9328C24.0662 29.9304 24.0563 29.9236 24.0579 29.9195C24.1274 29.7399 24.2041 29.557 24.2783 29.3801ZM32.4297 27.7801C32.6238 27.7801 32.7812 27.6227 32.7812 27.4285C32.7812 27.2343 32.6238 27.0769 32.4297 27.0769H30.1797C29.9855 27.0769 29.8281 27.2343 29.8281 27.4285C29.8281 27.6227 29.9855 27.7801 30.1797 27.7801H32.4297ZM29.162 32.9994C29.162 33.1936 29.3194 33.351 29.5135 33.351H33.5547C33.9036 33.351 34.1875 33.0671 34.1875 32.7182V21.1941C34.1875 20.8452 33.9036 20.5613 33.5547 20.5613H16.4453C16.0964 20.5613 15.8125 20.8452 15.8125 21.1941V32.7182C15.8125 33.0671 16.0964 33.351 16.4453 33.351H28.1073C28.3015 33.351 28.4589 33.1936 28.4589 32.9994C28.4589 32.8053 28.3015 32.6478 28.1073 32.6478H16.5156V21.2644H33.4844V32.6478H29.5135C29.3194 32.6478 29.162 32.8053 29.162 32.9994ZM35.9453 19.8582C36.5269 19.8582 37 19.3851 37 18.8035V17.7724C37 17.1909 36.5269 16.7177 35.9453 16.7177H34.5018V15.6792C34.5018 15.2269 34.1338 14.8589 33.6815 14.8589H33.5175V13.8203C33.5175 13.368 33.1495 13 32.6972 13H30.756C30.3037 13 29.9357 13.368 29.9357 13.8203V14.8589H29.7716C29.3193 14.8589 28.9513 15.2269 28.9513 15.6792V16.7177H21.0487V15.6792C21.0487 15.2269 20.6807 14.8589 20.2284 14.8589H20.0643V13.8203C20.0643 13.368 19.6963 13 19.244 13H17.3028C16.8505 13 16.4825 13.368 16.4825 13.8203V14.8589H16.3185C15.8662 14.8589 15.4982 15.2269 15.4982 15.6792V16.7177H14.0547C13.4731 16.7177 13 17.1909 13 17.7724V18.8035C13 19.3851 13.4731 19.8582 14.0547 19.8582H14.4062V22.3104C14.4062 22.5045 14.5637 22.6619 14.7578 22.6619C14.952 22.6619 15.1094 22.5045 15.1094 22.3104V19.8582H34.8906V34.0541H15.1094V23.7166C15.1094 23.5225 14.952 23.365 14.7578 23.365C14.5637 23.365 14.4062 23.5225 14.4062 23.7166V34.0541H14.0547C13.4731 34.0541 13 34.5272 13 35.1088V35.9453C13 36.5269 13.4731 37 14.0547 37H35.9453C36.5269 37 37 36.5269 37 35.9453V35.1088C37 34.5272 36.5269 34.0541 35.9453 34.0541H35.5938V19.8582H35.9453ZM30.6388 13.8203C30.6388 13.7557 30.6914 13.7031 30.756 13.7031H32.6972C32.7617 13.7031 32.8143 13.7557 32.8143 13.8203V14.8589H30.6388V13.8203ZM29.6544 15.6792C29.6544 15.6146 29.707 15.562 29.7716 15.562H33.6815C33.7461 15.562 33.7987 15.6146 33.7987 15.6792V16.7177H29.6544V15.6792ZM17.1857 13.8203C17.1857 13.7557 17.2382 13.7031 17.3028 13.7031H19.244C19.3086 13.7031 19.3612 13.7557 19.3612 13.8203V14.8589H17.1857V13.8203ZM16.2013 15.6792C16.2013 15.6146 16.2539 15.562 16.3185 15.562H20.2284C20.293 15.562 20.3456 15.6146 20.3456 15.6792V16.7177H16.2013V15.6792ZM35.9453 34.7572C36.1392 34.7572 36.2969 34.915 36.2969 35.1088V35.9453C36.2969 36.1391 36.1392 36.2969 35.9453 36.2969H14.0547C13.8608 36.2969 13.7031 36.1391 13.7031 35.9453V35.1088C13.7031 34.915 13.8608 34.7572 14.0547 34.7572H35.9453ZM14.0547 19.1551C13.8608 19.1551 13.7031 18.9974 13.7031 18.8035V17.7724C13.7031 17.5786 13.8608 17.4209 14.0547 17.4209H35.9453C36.1392 17.4209 36.2969 17.5786 36.2969 17.7724V18.8035C36.2969 18.9974 36.1392 19.1551 35.9453 19.1551H14.0547Z" fill="black"/>
</g>
<circle cx="45" cy="45" r="10" fill="#F05050"/>
<path d="M41.5303 40.4697C41.2374 40.1768 40.7626 40.1768 40.4697 40.4697C40.1768 40.7626 40.1768 41.2374 40.4697 41.5303L41.5303 40.4697ZM48.4697 49.5303C48.7626 49.8232 49.2374 49.8232 49.5303 49.5303C49.8232 49.2374 49.8232 48.7626 49.5303 48.4697L48.4697 49.5303ZM40.4697 41.5303L48.4697 49.5303L49.5303 48.4697L41.5303 40.4697L40.4697 41.5303Z" fill="white"/>
<path d="M49 41L41 49" stroke="white" stroke-width="1.5" stroke-linecap="round" stroke-linejoin="round"/>
<defs>
<clipPath id="clip0">
<rect width="24" height="24" fill="white" transform="translate(13 13)"/>
</clipPath>
</defs>
</svg>
