<svg width="14" height="14" viewBox="0 0 14 14" fill="none" xmlns="http://www.w3.org/2000/svg">
<path d="M5.93404 2.24599H2.40973C2.03584 2.24599 1.67727 2.40077 1.4129 2.67629C1.14852 2.95181 1 3.32549 1 3.71514V11.7954C1 12.1851 1.14852 12.5588 1.4129 12.8343C1.67727 13.1098 2.03584 13.2646 2.40973 13.2646H10.1632C10.5371 13.2646 10.8957 13.1098 11.1601 12.8343C11.4244 12.5588 11.5729 12.1851 11.5729 11.7954V8.12258M10.5763 1.2073C10.7063 1.06698 10.8619 0.955061 11.0339 0.878064C11.2059 0.801068 11.3908 0.76054 11.578 0.758845C11.7652 0.757149 11.9508 0.794321 12.1241 0.868191C12.2973 0.942061 12.4547 1.05115 12.5871 1.18909C12.7195 1.32703 12.8241 1.49107 12.895 1.67162C12.9659 1.85217 13.0016 2.04563 12.9999 2.2407C12.9983 2.43577 12.9594 2.62856 12.8855 2.8078C12.8117 2.98704 12.7043 3.14915 12.5696 3.28468L6.51767 9.59172H4.52432V7.51435L10.5763 1.2073Z" stroke="#FF9494" stroke-width="1.2" stroke-linecap="round" stroke-linejoin="round"/>
</svg>
