<svg width="15" height="15" viewBox="0 0 15 15" fill="none" xmlns="http://www.w3.org/2000/svg">
<path d="M6.25 3.75H3.125C2.79348 3.75 2.47554 3.8817 2.24112 4.11612C2.0067 4.35054 1.875 4.66848 1.875 5V10.625C1.875 10.9565 2.0067 11.2745 2.24112 11.5089C2.47554 11.7433 2.79348 11.875 3.125 11.875H11.875C12.2065 11.875 12.5245 11.7433 12.7589 11.5089C12.9933 11.2745 13.125 10.9565 13.125 10.625V5C13.125 4.66848 12.9933 4.35054 12.7589 4.11612C12.5245 3.8817 12.2065 3.75 11.875 3.75H8.75M6.25 3.75V3.125C6.25 2.79348 6.3817 2.47554 6.61612 2.24112C6.85054 2.0067 7.16848 1.875 7.5 1.875C7.83152 1.875 8.14946 2.0067 8.38388 2.24112C8.6183 2.47554 8.75 2.79348 8.75 3.125V3.75M6.25 3.75C6.25 4.08152 6.3817 4.39946 6.61612 4.63388C6.85054 4.8683 7.16848 5 7.5 5C7.83152 5 8.14946 4.8683 8.38388 4.63388C8.6183 4.39946 8.75 4.08152 8.75 3.75M5.625 8.75C5.95652 8.75 6.27446 8.6183 6.50888 8.38388C6.7433 8.14946 6.875 7.83152 6.875 7.5C6.875 7.16848 6.7433 6.85054 6.50888 6.61612C6.27446 6.3817 5.95652 6.25 5.625 6.25C5.29348 6.25 4.97554 6.3817 4.74112 6.61612C4.5067 6.85054 4.375 7.16848 4.375 7.5C4.375 7.83152 4.5067 8.14946 4.74112 8.38388C4.97554 8.6183 5.29348 8.75 5.625 8.75ZM5.625 8.75C6.44125 8.75 7.13562 9.27188 7.39375 10M5.625 8.75C5.23711 8.74989 4.85873 8.87004 4.54197 9.0939C4.2252 9.31776 3.98563 9.63433 3.85625 10M9.375 6.875H11.25M9.375 9.375H10.625" stroke="#565656" stroke-width="1.25" stroke-linecap="round" stroke-linejoin="round"/>
</svg>
