<svg width="15" height="15" viewBox="0 0 15 15" fill="none" xmlns="http://www.w3.org/2000/svg">
<path d="M2.5 4.375V10.625C2.5 12.0063 4.73875 13.125 7.5 13.125C10.2613 13.125 12.5 12.0063 12.5 10.625V4.375M2.5 4.375C2.5 5.75625 4.73875 6.875 7.5 6.875C10.2613 6.875 12.5 5.75625 12.5 4.375M2.5 4.375C2.5 2.99375 4.73875 1.875 7.5 1.875C10.2613 1.875 12.5 2.99375 12.5 4.375M12.5 7.5C12.5 8.88125 10.2613 10 7.5 10C4.73875 10 2.5 8.88125 2.5 7.5" stroke="#565656" stroke-width="1.25" stroke-linecap="round" stroke-linejoin="round"/>
</svg>
