<svg width="15" height="15" viewBox="0 0 15 15" fill="none" xmlns="http://www.w3.org/2000/svg">
<path d="M5 4.375V1.875M10 4.375V1.875M4.375 6.875H10.625M3.125 13.125H11.875C12.2065 13.125 12.5245 12.9933 12.7589 12.7589C12.9933 12.5245 13.125 12.2065 13.125 11.875V4.375C13.125 4.04348 12.9933 3.72554 12.7589 3.49112C12.5245 3.2567 12.2065 3.125 11.875 3.125H3.125C2.79348 3.125 2.47554 3.2567 2.24112 3.49112C2.0067 3.72554 1.875 4.04348 1.875 4.375V11.875C1.875 12.2065 2.0067 12.5245 2.24112 12.7589C2.47554 12.9933 2.79348 13.125 3.125 13.125Z" stroke="#565656" stroke-width="1.25" stroke-linecap="round" stroke-linejoin="round"/>
</svg>
