<svg width="55" height="55" viewBox="0 0 55 55" fill="none" xmlns="http://www.w3.org/2000/svg">
<circle cx="25" cy="25" r="24" fill="#F5F5F5" stroke="#FF6C6C" stroke-width="2"/>
<path d="M33.0953 27.9164C33.2272 27.6463 33.3046 27.3528 33.3231 27.0528C33.3415 26.7527 33.3007 26.452 33.2029 26.1677C33.1052 25.8834 32.9524 25.6212 32.7533 25.396C32.5541 25.1708 32.3126 24.987 32.0425 24.8551C31.7723 24.7232 31.4789 24.6458 31.1788 24.6274C30.8788 24.6089 30.578 24.6497 30.2938 24.7475C30.0095 24.8453 29.7472 24.9981 29.522 25.1972C29.2968 25.3963 29.113 25.6378 28.9811 25.9079L26.9156 30.1391C26.7838 30.4092 26.7064 30.7027 26.6879 31.0028C26.6695 31.3028 26.7103 31.6036 26.808 31.8878C26.9058 32.1721 27.0586 32.4343 27.2577 32.6596C27.4568 32.8848 27.6984 33.0686 27.9685 33.2004C28.5141 33.4666 29.1431 33.5052 29.7172 33.3078C30.2912 33.1103 30.7634 32.693 31.0299 32.1475L33.0953 27.9164ZM29.5287 26.1753C29.6253 25.9768 29.7601 25.7993 29.9254 25.6529C30.0906 25.5066 30.2831 25.3942 30.4918 25.3223C30.7006 25.2504 30.9214 25.2203 31.1418 25.2338C31.3621 25.2473 31.5776 25.3041 31.776 25.4009C31.9744 25.4977 32.1518 25.6328 32.2979 25.7982C32.4441 25.9636 32.5562 26.1562 32.6279 26.3651C32.6996 26.5739 32.7294 26.7947 32.7156 27.0151C32.7019 27.2354 32.6448 27.4509 32.5478 27.6491L31.6489 29.4909L28.6296 28.017L29.5287 26.1753ZM30.4823 31.8802C30.2864 32.2802 29.9399 32.5861 29.5188 32.731C29.0976 32.8758 28.6362 32.8477 28.2358 32.6528C27.8355 32.4573 27.5291 32.1109 27.3842 31.6896C27.2393 31.2683 27.2677 30.8067 27.4632 30.4064L28.3623 28.5649L31.3814 30.0387L30.4823 31.8802Z" fill="black"/>
<path d="M30.6197 25.594C30.4072 25.6664 30.2113 25.7802 30.0431 25.9288C29.875 26.0775 29.738 26.258 29.6401 26.4599L29.2614 27.2356C29.2259 27.3083 29.2207 27.392 29.247 27.4684C29.2732 27.5449 29.3288 27.6078 29.4014 27.6433C29.474 27.6788 29.5577 27.684 29.6342 27.6577C29.7106 27.6315 29.7735 27.5759 29.809 27.5033L30.1877 26.7276C30.2507 26.5977 30.3388 26.4816 30.4469 26.386C30.5551 26.2903 30.6812 26.2171 30.8178 26.1705C30.8562 26.158 30.8918 26.1379 30.9224 26.1115C30.953 26.0851 30.978 26.0529 30.996 26.0167C31.0141 25.9805 31.0247 25.9412 31.0274 25.9008C31.03 25.8605 31.0246 25.82 31.0115 25.7818C30.9983 25.7436 30.9777 25.7084 30.9508 25.6782C30.924 25.648 30.8913 25.6235 30.8549 25.606C30.8184 25.5886 30.7789 25.5786 30.7385 25.5766C30.6981 25.5745 30.6578 25.5806 30.6198 25.5943L30.6197 25.594Z" fill="black"/>
<path d="M36.1804 27.7642C35.6348 27.4979 35.0057 27.4592 34.4316 27.6567C33.8575 27.8542 33.3854 28.2716 33.119 28.8172L31.0535 33.0482C30.7884 33.5937 30.7506 34.222 30.9484 34.7952C31.1461 35.3685 31.5632 35.8399 32.1082 36.1059C32.6531 36.372 33.2813 36.4109 33.855 36.2142C34.4286 36.0175 34.9007 35.6012 35.1677 35.0567L37.2332 30.8256C37.3651 30.5555 37.4425 30.262 37.461 29.962C37.4794 29.6619 37.4386 29.3612 37.3408 29.0769C37.2431 28.7926 37.0903 28.5304 36.8912 28.3052C36.692 28.0799 36.4505 27.8961 36.1804 27.7642ZM34.6202 34.7894C34.4247 35.1897 34.0783 35.4961 33.657 35.6409C33.2357 35.7858 32.7741 35.7575 32.3737 35.562C31.9734 35.3666 31.667 35.0201 31.5221 34.5988C31.3772 34.1775 31.4056 33.7159 31.6011 33.3155L32.4999 31.4738L35.5193 32.9475L34.6202 34.7894ZM36.6856 30.5583L35.7868 32.4001L32.7675 30.9264L33.6663 29.0847C33.763 28.8862 33.8977 28.7087 34.063 28.5623C34.2283 28.4159 34.4208 28.3036 34.6295 28.2316C34.8382 28.1597 35.059 28.1296 35.2794 28.1431C35.4997 28.1566 35.7153 28.2134 35.9137 28.3103C36.112 28.4071 36.2894 28.5421 36.4356 28.7075C36.5817 28.873 36.6939 29.0656 36.7655 29.2744C36.8372 29.4832 36.867 29.7041 36.8533 29.9244C36.8395 30.1448 36.7825 30.3602 36.6854 30.5585L36.6856 30.5583Z" fill="black"/>
<path d="M34.7589 28.5028C34.5464 28.5752 34.3504 28.6891 34.1823 28.8377C34.0142 28.9864 33.8772 29.1669 33.7793 29.3689L33.4006 30.1446C33.3818 30.1806 33.3705 30.2201 33.3672 30.2606C33.3639 30.3012 33.3688 30.3419 33.3815 30.3806C33.3942 30.4192 33.4146 30.4549 33.4413 30.4855C33.468 30.5161 33.5006 30.5411 33.5372 30.559C33.5737 30.5768 33.6135 30.5872 33.6541 30.5894C33.6947 30.5917 33.7353 30.5858 33.7736 30.5721C33.8119 30.5584 33.847 30.5371 33.877 30.5096C33.9069 30.4821 33.9311 30.4489 33.948 30.4119L34.3267 29.6362C34.3897 29.5063 34.4778 29.3901 34.5859 29.2945C34.6941 29.1989 34.8202 29.1257 34.9568 29.0791C34.995 29.0664 35.0303 29.0462 35.0606 29.0198C35.091 28.9933 35.1158 28.9611 35.1337 28.9251C35.1515 28.889 35.162 28.8497 35.1646 28.8095C35.1672 28.7694 35.1617 28.7291 35.1487 28.691C35.1356 28.6529 35.1151 28.6178 35.0884 28.5877C35.0616 28.5576 35.0292 28.5331 34.9929 28.5156C34.9567 28.4981 34.9173 28.488 34.8771 28.4858C34.8369 28.4836 34.7967 28.4894 34.7588 28.5028H34.7589Z" fill="black"/>
<path d="M23.4225 18.8267C23.7307 18.7924 24.0155 18.6458 24.2224 18.4148C24.4294 18.1839 24.544 17.8848 24.5444 17.5747V14.6054C24.544 14.2714 24.4112 13.9512 24.175 13.715C23.9388 13.4788 23.6185 13.346 23.2845 13.3457H14.6162C14.2823 13.3462 13.9621 13.479 13.7261 13.7152C13.49 13.9513 13.3572 14.2715 13.3568 14.6054V17.5747C13.3572 17.9086 13.49 18.2288 13.7261 18.4649C13.9621 18.7011 14.2823 18.8339 14.6162 18.8344H14.7954C14.5222 19.0051 14.2638 19.1985 14.023 19.4125C13.1025 20.2313 12.5602 21.2356 12.5352 22.1674V22.1756V34.9624C12.5352 35.8003 13.3629 36.6534 14.175 36.6534H23.9316C24.3304 36.6534 24.7034 36.4508 24.9827 36.0829C25.227 35.7599 25.3614 35.3671 25.3661 34.9622V22.1755C25.366 20.8766 24.4626 19.5642 23.4225 18.8267ZM22.8498 13.9551H23.2845C23.457 13.9552 23.6223 14.0238 23.7443 14.1457C23.8662 14.2676 23.9348 14.4329 23.935 14.6054V17.5747C23.9348 17.7472 23.8662 17.9125 23.7443 18.0344C23.6223 18.1563 23.457 18.2249 23.2845 18.225H22.8498V13.9551ZM21.0525 13.9551H22.2405V18.225H21.0525V13.9551ZM19.204 13.9551H20.4431V18.225H19.204V13.9551ZM17.4581 13.9551H18.5947V18.225H17.4579L17.4581 13.9551ZM15.6097 13.9551H16.8487V18.225H15.6097V13.9551ZM14.6162 18.225C14.4438 18.2248 14.2786 18.1561 14.1567 18.0342C14.0349 17.9123 13.9664 17.7471 13.9662 17.5747V14.6054C13.9664 14.433 14.0349 14.2678 14.1567 14.1459C14.2786 14.024 14.4438 13.9553 14.6162 13.9551H14.9998V18.225H14.6162ZM24.7566 31.9245H16.2934V24.1122H24.7566V31.9245ZM24.7566 23.5028H15.9887C15.9079 23.5028 15.8304 23.5349 15.7732 23.5921C15.7161 23.6492 15.684 23.7267 15.684 23.8075V32.2292C15.684 32.31 15.7161 32.3875 15.7732 32.4446C15.8304 32.5018 15.9079 32.5339 15.9887 32.5339H24.7566V34.9622C24.7566 35.4522 24.3886 36.0439 23.9316 36.0439H14.1748C13.7029 36.0439 13.1444 35.4574 13.1444 34.9622V22.18C13.1665 21.4165 13.6342 20.574 14.4281 19.8678C15.1231 19.2497 15.9728 18.8344 16.5427 18.8344H21.831C22.9055 18.8344 24.7566 20.4854 24.7566 22.1758V23.5028Z" fill="black"/>
<path d="M18.0067 29.1962H19.5507V30.74C19.5508 30.848 19.5938 30.9515 19.6702 31.0279C19.7465 31.1043 19.8501 31.1472 19.9581 31.1474H21.2419C21.3499 31.1472 21.4535 31.1043 21.5298 31.0279C21.6062 30.9516 21.6492 30.848 21.6493 30.74V29.1962H23.1931C23.3011 29.1961 23.4046 29.1532 23.481 29.0768C23.5574 29.0004 23.6004 28.8968 23.6005 28.7888V27.505C23.6003 27.397 23.5574 27.2935 23.481 27.2171C23.4046 27.1407 23.3011 27.0978 23.1931 27.0977H21.6493V25.5539C21.6492 25.4459 21.6062 25.3423 21.5298 25.2659C21.4535 25.1896 21.3499 25.1466 21.2419 25.1465H19.9581C19.8501 25.1466 19.7465 25.1896 19.6702 25.266C19.5938 25.3423 19.5508 25.4459 19.5507 25.5539V27.0977H18.007C17.899 27.0978 17.7954 27.1407 17.7191 27.2171C17.6427 27.2935 17.5997 27.397 17.5996 27.505V28.7888C17.5997 28.8968 17.6426 29.0003 17.719 29.0767C17.7953 29.1531 17.8988 29.196 18.0067 29.1962ZM18.2087 27.707H19.7525C19.8605 27.7069 19.964 27.6639 20.0404 27.5876C20.1168 27.5112 20.1598 27.4077 20.1599 27.2997V25.7557H21.0397V27.2997C21.0399 27.4077 21.0828 27.5112 21.1592 27.5876C21.2356 27.6639 21.3391 27.7069 21.4471 27.707H22.9911V28.5869H21.4474C21.3393 28.587 21.2358 28.6299 21.1594 28.7063C21.083 28.7827 21.0401 28.8862 21.04 28.9942V30.538H20.1601V28.9942C20.16 28.8862 20.117 28.7827 20.0406 28.7063C19.9643 28.6299 19.8607 28.587 19.7527 28.5869H18.2089L18.2087 27.707Z" fill="black"/>
<path d="M14.3662 24.6982C14.2854 24.6982 14.2079 24.7303 14.1508 24.7875C14.0936 24.8446 14.0615 24.9221 14.0615 25.0029V32.3331C14.0615 32.4139 14.0936 32.4914 14.1508 32.5485C14.2079 32.6057 14.2854 32.6378 14.3662 32.6378C14.447 32.6378 14.5245 32.6057 14.5817 32.5485C14.6388 32.4914 14.6709 32.4139 14.6709 32.3331V25.0029C14.6709 24.9221 14.6388 24.8446 14.5817 24.7875C14.5245 24.7303 14.447 24.6982 14.3662 24.6982Z" fill="black"/>
<path d="M14.3359 24.3018C14.4167 24.3018 14.4942 24.2697 14.5514 24.2125C14.6085 24.1554 14.6406 24.0779 14.6406 23.9971V23.7793C14.6406 23.6985 14.6085 23.621 14.5514 23.5639C14.4942 23.5067 14.4167 23.4746 14.3359 23.4746C14.2551 23.4746 14.1776 23.5067 14.1205 23.5639C14.0634 23.621 14.0312 23.6985 14.0312 23.7793V23.9971C14.0312 24.0779 14.0634 24.1554 14.1205 24.2125C14.1776 24.2697 14.2551 24.3018 14.3359 24.3018Z" fill="black"/>
<circle cx="45" cy="45" r="10" fill="#F05050"/>
<path d="M41.5303 40.4697C41.2374 40.1768 40.7626 40.1768 40.4697 40.4697C40.1768 40.7626 40.1768 41.2374 40.4697 41.5303L41.5303 40.4697ZM48.4697 49.5303C48.7626 49.8232 49.2374 49.8232 49.5303 49.5303C49.8232 49.2374 49.8232 48.7626 49.5303 48.4697L48.4697 49.5303ZM40.4697 41.5303L48.4697 49.5303L49.5303 48.4697L41.5303 40.4697L40.4697 41.5303Z" fill="white"/>
<path d="M49 41L41 49" stroke="white" stroke-width="1.5" stroke-linecap="round" stroke-linejoin="round"/>
</svg>
