<svg width="18" height="18" viewBox="0 0 18 18" fill="none" xmlns="http://www.w3.org/2000/svg">
<path d="M1 12.4013V2.75862C1 1.78736 1.78736 1 2.75862 1H15.069C16.0402 1 16.8276 1.78736 16.8276 2.75862V16.4712C16.8276 17.2424 16.0959 17.8035 15.3511 17.6035L2.30255 14.0998C1.53416 13.8934 1 13.1969 1 12.4013Z" fill="#F05050"/>
<path d="M2.30255 14.0998L2.37857 13.8167H2.37856L2.30255 14.0998ZM15.3511 17.6035L15.4271 17.3205H15.4271L15.3511 17.6035ZM0.706897 2.75862V12.4013H1.2931V2.75862H0.706897ZM2.22654 14.3828L15.2751 17.8866L15.4271 17.3205L2.37857 13.8167L2.22654 14.3828ZM17.1207 16.4712V2.75862H16.5345V16.4712H17.1207ZM15.069 0.706897H2.75862V1.2931H15.069V0.706897ZM17.1207 2.75862C17.1207 1.62549 16.2021 0.706897 15.069 0.706897V1.2931C15.8783 1.2931 16.5345 1.94924 16.5345 2.75862H17.1207ZM15.2751 17.8866C16.2061 18.1366 17.1207 17.4352 17.1207 16.4712H16.5345C16.5345 17.0496 15.9857 17.4705 15.4271 17.3205L15.2751 17.8866ZM0.706897 12.4013C0.706897 13.3295 1.33008 14.1421 2.22654 14.3828L2.37856 13.8167C1.73824 13.6447 1.2931 13.0643 1.2931 12.4013H0.706897ZM1.2931 2.75862C1.2931 1.94924 1.94924 1.2931 2.75862 1.2931V0.706897C1.62549 0.706897 0.706897 1.62548 0.706897 2.75862H1.2931Z" fill="#F05050"/>
<path d="M9.68494 3.0989C9.53476 2.64542 8.8803 2.64542 8.72962 3.0989L7.96667 5.40025C7.93381 5.49904 7.86991 5.58511 7.78411 5.64614C7.69831 5.70716 7.59502 5.74001 7.48901 5.73999H5.02086C4.53466 5.73999 4.33174 6.35053 4.72552 6.63118L6.72255 8.05316C6.80833 8.11429 6.87218 8.20047 6.90493 8.29936C6.93768 8.39825 6.93766 8.50476 6.90487 8.60363L6.14243 10.905C5.99175 11.3585 6.52164 11.7361 6.91492 11.4555L8.91195 10.0335C8.99778 9.97232 9.10117 9.93937 9.20728 9.93937C9.3134 9.93937 9.41678 9.97232 9.50262 10.0335L11.4996 11.4555C11.8929 11.7361 12.4228 11.359 12.2721 10.905L11.5097 8.60363C11.4769 8.50476 11.4769 8.39825 11.5096 8.29936C11.5424 8.20047 11.6062 8.11429 11.692 8.05316L13.689 6.63118C14.0823 6.35053 13.8804 5.73999 13.3937 5.73999H10.925C10.8191 5.73991 10.7159 5.70701 10.6302 5.64599C10.5445 5.58498 10.4807 5.49896 10.4479 5.40025L9.68494 3.0989Z" fill="white"/>
</svg>
