<svg width="20" height="20" viewBox="0 0 20 20" fill="none" xmlns="http://www.w3.org/2000/svg">
<g clip-path="url(#clip0)">
<path fill-rule="evenodd" clip-rule="evenodd" d="M14.1142 5.45625C13.0608 4.4715 11.655 3.93503 10.2005 3.95707C7.53882 3.95707 5.27828 5.71712 4.47227 8.08712V8.08717C4.04491 9.32913 4.04491 10.674 4.47227 11.9159H4.47601C5.28576 14.2823 7.54255 16.0423 10.2042 16.0423C11.5782 16.0423 12.7577 15.6979 13.6719 15.0895V15.087C14.7478 14.3889 15.4826 13.2902 15.7113 12.0482H10.2005V8.19742H19.8237C19.9437 8.86617 19.9999 9.54961 19.9999 10.2294C19.9999 13.2709 18.8909 15.8424 16.9614 17.5841L16.9634 17.5856C15.2726 19.1142 12.9521 19.9997 10.2005 19.9997C6.34293 19.9997 2.81528 17.8685 1.08332 14.4917V14.4917C-0.363715 11.6661 -0.363712 8.33703 1.08333 5.51139H1.08335L1.08332 5.51136C2.81528 2.13087 6.34293 -0.000302674 10.2005 -0.000302674C12.7347 -0.0296982 15.1827 0.903611 17.0271 2.6012L14.1142 5.45625Z" fill="#737373"/>
</g>
<defs>
<clipPath id="clip0">
<rect width="20" height="20" fill="white"/>
</clipPath>
</defs>
</svg>
