<svg width="15" height="15" viewBox="0 0 15 15" fill="none" xmlns="http://www.w3.org/2000/svg">
<path d="M5 2.5H3.75C3.41848 2.5 3.10054 2.6317 2.86612 2.86612C2.6317 3.10054 2.5 3.41848 2.5 3.75V11.25C2.5 11.5815 2.6317 11.8995 2.86612 12.1339C3.10054 12.3683 3.41848 12.5 3.75 12.5H11.25C11.5815 12.5 11.8995 12.3683 12.1339 12.1339C12.3683 11.8995 12.5 11.5815 12.5 11.25V3.75C12.5 3.41848 12.3683 3.10054 12.1339 2.86612C11.8995 2.6317 11.5815 2.5 11.25 2.5H10M7.5 1.875V6.875M7.5 6.875L9.375 5M7.5 6.875L5.625 5M2.5 8.125H4.11625C4.282 8.12504 4.44094 8.19091 4.55813 8.30813L6.06687 9.81687C6.18406 9.93409 6.343 9.99996 6.50875 10H8.49125C8.657 9.99996 8.81594 9.93409 8.93313 9.81687L10.4419 8.30813C10.5591 8.19091 10.718 8.12504 10.8837 8.125H12.5" stroke="#565656" stroke-width="1.25" stroke-linecap="round" stroke-linejoin="round"/>
</svg>
