<svg width="13" height="13" viewBox="0 0 13 13" fill="none" xmlns="http://www.w3.org/2000/svg">
<path d="M0.909375 5.875H2.125C2.45652 5.875 2.77446 6.0067 3.00888 6.24112C3.2433 6.47554 3.375 6.79348 3.375 7.125V7.75C3.375 8.08152 3.5067 8.39946 3.74112 8.63388C3.97554 8.8683 4.29348 9 4.625 9C4.95652 9 5.27446 9.1317 5.50888 9.36612C5.7433 9.60054 5.875 9.91848 5.875 10.25V12.0906M4 1.45937V2.4375C4 2.8519 4.16462 3.24933 4.45765 3.54235C4.75067 3.83538 5.1481 4 5.5625 4H5.875C6.20652 4 6.52446 4.1317 6.75888 4.36612C6.9933 4.60054 7.125 4.91848 7.125 5.25C7.125 5.58152 7.2567 5.89946 7.49112 6.13388C7.72554 6.3683 8.04348 6.5 8.375 6.5C8.70652 6.5 9.02446 6.3683 9.25888 6.13388C9.4933 5.89946 9.625 5.58152 9.625 5.25C9.625 4.91848 9.7567 4.60054 9.99112 4.36612C10.2255 4.1317 10.5435 4 10.875 4H11.54M8.375 11.805V10.25C8.375 9.91848 8.5067 9.60054 8.74112 9.36612C8.97554 9.1317 9.29348 9 9.625 9H11.54M12.125 6.5C12.125 7.23869 11.9795 7.97014 11.6968 8.65259C11.4141 9.33505 10.9998 9.95515 10.4775 10.4775C9.95515 10.9998 9.33505 11.4141 8.65259 11.6968C7.97014 11.9795 7.23869 12.125 6.5 12.125C5.76131 12.125 5.02986 11.9795 4.34741 11.6968C3.66495 11.4141 3.04485 10.9998 2.52252 10.4775C2.00019 9.95515 1.58586 9.33505 1.30318 8.65259C1.02049 7.97014 0.875 7.23869 0.875 6.5C0.875 5.00816 1.46763 3.57742 2.52252 2.52252C3.57742 1.46763 5.00816 0.875 6.5 0.875C7.99184 0.875 9.42258 1.46763 10.4775 2.52252C11.5324 3.57742 12.125 5.00816 12.125 6.5Z" stroke="#565656" stroke-width="1.25" stroke-linecap="round" stroke-linejoin="round"/>
</svg>
