<svg width="20" height="19" viewBox="0 0 20 19" fill="none" xmlns="http://www.w3.org/2000/svg">
<path d="M10.8721 1.9828C10.598 1.13855 9.40358 1.13855 9.12858 1.9828L7.73616 6.2673C7.67619 6.45123 7.55957 6.61147 7.40298 6.72508C7.24639 6.83869 7.05788 6.89985 6.86442 6.8998H2.35992C1.47258 6.8998 1.10225 8.03646 1.82091 8.55896L5.46558 11.2063C5.62214 11.3201 5.73866 11.4806 5.79843 11.6647C5.8582 11.8488 5.85817 12.0471 5.79833 12.2311L4.40683 16.5156C4.13183 17.3599 5.09891 18.063 5.81666 17.5405L9.46133 14.8931C9.61798 14.7793 9.80667 14.7179 10.0003 14.7179C10.194 14.7179 10.3827 14.7793 10.5393 14.8931L14.184 17.5405C14.9017 18.063 15.8688 17.3608 15.5938 16.5156L14.2023 12.2311C14.1425 12.0471 14.1425 11.8488 14.2022 11.6647C14.262 11.4806 14.3785 11.3201 14.5351 11.2063L18.1797 8.55896C18.8975 8.03646 18.529 6.8998 17.6407 6.8998H13.1353C12.942 6.89966 12.7537 6.83841 12.5973 6.72481C12.4409 6.61121 12.3244 6.45108 12.2645 6.2673L10.8721 1.9828Z" stroke="#CACACA" stroke-width="1.57419" stroke-linecap="round" stroke-linejoin="round"/>
</svg>
