<svg width="22" height="22" viewBox="0 0 22 22" fill="none" xmlns="http://www.w3.org/2000/svg">
<path d="M11.8721 2.68299C11.598 1.83874 10.4036 1.83874 10.1286 2.68299L8.73616 6.96749C8.67619 7.15142 8.55957 7.31166 8.40298 7.42527C8.24639 7.53889 8.05788 7.60004 7.86442 7.59999H3.35992C2.47258 7.59999 2.10225 8.73666 2.82091 9.25916L6.46558 11.9065C6.62214 12.0203 6.73866 12.1808 6.79843 12.3649C6.8582 12.549 6.85817 12.7472 6.79833 12.9313L5.40683 17.2158C5.13183 18.0601 6.09891 18.7632 6.81666 18.2407L10.4613 15.5933C10.618 15.4795 10.8067 15.4181 11.0003 15.4181C11.194 15.4181 11.3827 15.4795 11.5393 15.5933L15.184 18.2407C15.9017 18.7632 16.8688 18.061 16.5938 17.2158L15.2023 12.9313C15.1425 12.7472 15.1425 12.549 15.2022 12.3649C15.262 12.1808 15.3785 12.0203 15.5351 11.9065L19.1797 9.25916C19.8975 8.73666 19.529 7.59999 18.6407 7.59999H14.1353C13.942 7.59985 13.7537 7.5386 13.5973 7.425C13.4409 7.31141 13.3244 7.15127 13.2645 6.96749L11.8721 2.68299Z" fill="#FFD464" stroke="#CACACA" stroke-linecap="round" stroke-linejoin="round"/>
</svg>
