<svg width="55" height="55" viewBox="0 0 55 55" fill="none" xmlns="http://www.w3.org/2000/svg">
<circle cx="25" cy="25" r="24" fill="#F5F5F5" stroke="#FF6C6C" stroke-width="2"/>
<g clip-path="url(#clip0)">
<path d="M21.0967 27.5215C20.8863 27.5215 20.7158 27.692 20.7158 27.9023V28.901C20.7158 29.1113 20.8863 29.2819 21.0967 29.2819C21.307 29.2819 21.4775 29.1113 21.4775 28.901V27.9023C21.4775 27.692 21.307 27.5215 21.0967 27.5215Z" fill="black"/>
<path d="M21.4782 22.5437L26.9837 19.3651C27.1658 19.2599 27.2282 19.027 27.1231 18.8448C27.0179 18.6626 26.7849 18.6002 26.6028 18.7054L21.0973 21.884L15.5918 18.7054C15.4097 18.6002 15.1768 18.6626 15.0716 18.8448C14.9664 19.027 15.0288 19.2599 15.211 19.3651L20.7164 22.5437V26.1248C20.7164 26.3351 20.887 26.5056 21.0973 26.5056C21.3076 26.5056 21.4782 26.3351 21.4782 26.1248V22.5437Z" fill="black"/>
<path d="M30.0196 24.351L32.1976 23.0935C32.3798 22.9884 32.4422 22.7554 32.337 22.5733C32.2319 22.3911 31.9988 22.3287 31.8168 22.4339L29.6387 23.6914C29.4566 23.7966 29.3942 24.0295 29.4993 24.2116C29.605 24.3947 29.8383 24.4558 30.0196 24.351Z" fill="black"/>
<path d="M32.007 34.9494C32.2174 34.9494 32.3879 34.7789 32.3879 34.5685V29.1523L37.0785 26.4441C37.2606 26.339 37.3231 26.106 37.2179 25.9239C37.1127 25.7417 36.8797 25.6793 36.6976 25.7845L32.007 28.4927L27.3165 25.7845C27.1342 25.6793 26.9013 25.7417 26.7962 25.9239C26.691 26.1061 26.7534 26.339 26.9356 26.4442L31.6262 29.1523V34.5685C31.6262 34.7789 31.7967 34.9494 32.007 34.9494Z" fill="black"/>
<path d="M13.5922 27.341L20.505 31.3321C20.8701 31.543 21.324 31.543 21.6893 31.3321L25.0136 29.4128V32.353C25.0136 32.7338 25.2184 33.0886 25.5483 33.2791L31.4721 36.6992C31.8019 36.8897 32.2117 36.8897 32.5415 36.6992L38.4653 33.2791C38.7951 33.0887 39 32.7338 39 32.353V29.7821C39 29.5718 38.8295 29.4013 38.6191 29.4013C38.4088 29.4013 38.2383 29.5718 38.2383 29.7821V32.353C38.2383 32.4626 38.1794 32.5647 38.0845 32.6195L32.1606 36.0396C32.0657 36.0944 31.9479 36.0944 31.853 36.0396L25.9291 32.6195C25.8343 32.5647 25.7753 32.4626 25.7753 32.353C25.7753 31.4703 25.7753 27.2885 25.7753 25.5127C25.7753 25.4032 25.8343 25.3011 25.9291 25.2463C26.9818 24.6385 29.9853 22.9045 31.853 21.8261C31.9479 21.7713 32.0657 21.7714 32.1606 21.8261L38.0845 25.2463C38.1794 25.301 38.2383 25.4032 38.2383 25.5127V28.0047C38.2383 28.2151 38.4088 28.3856 38.6191 28.3856C38.8295 28.3856 39 28.2151 39 28.0047V25.5127C39 25.1318 38.7951 24.777 38.4653 24.5866L32.5415 21.1665C32.2117 20.976 31.802 20.976 31.4721 21.1665L29.1943 22.4816V18.3331C29.1943 17.9113 28.9674 17.5184 28.6021 17.3075L21.6893 13.3164C21.3241 13.1055 20.8702 13.1055 20.505 13.3164L19.0646 14.148C18.8824 14.2532 18.82 14.4861 18.9252 14.6683C19.0304 14.8505 19.2633 14.9129 19.4454 14.8076L20.8859 13.976C21.0162 13.9008 21.1782 13.9008 21.3085 13.976L28.2213 17.9671C28.3516 18.0424 28.4326 18.1826 28.4326 18.3331V22.9214L25.5483 24.5866C25.2185 24.777 25.0136 25.1318 25.0136 25.5127V28.5333L21.3085 30.6724C21.1782 30.7476 21.0163 30.7477 20.8859 30.6724L13.973 26.6813C13.8427 26.6061 13.7617 26.4659 13.7617 26.3153V18.3331C13.7617 18.1826 13.8427 18.0424 13.973 17.9671L17.8944 15.7031C18.0766 15.598 18.139 15.365 18.0338 15.1829C17.9286 15.0007 17.6957 14.9383 17.5135 15.0435L13.5921 17.3075C13.2269 17.5184 13 17.9113 13 18.3331V26.3153C13 26.7371 13.2269 27.1301 13.5922 27.341Z" fill="black"/>
<path d="M15.9203 17.8684C16.0257 18.0511 16.2589 18.1127 16.4405 18.0078L18.6955 16.7059C18.8776 16.6007 18.94 16.3678 18.8349 16.1856C18.7297 16.0034 18.4968 15.941 18.3146 16.0462L16.0597 17.3481C15.8775 17.4533 15.815 17.6862 15.9203 17.8684Z" fill="black"/>
</g>
<circle cx="45" cy="45" r="10" fill="#F05050"/>
<path d="M41.5303 40.4697C41.2374 40.1768 40.7626 40.1768 40.4697 40.4697C40.1768 40.7626 40.1768 41.2374 40.4697 41.5303L41.5303 40.4697ZM48.4697 49.5303C48.7626 49.8232 49.2374 49.8232 49.5303 49.5303C49.8232 49.2374 49.8232 48.7626 49.5303 48.4697L48.4697 49.5303ZM40.4697 41.5303L48.4697 49.5303L49.5303 48.4697L41.5303 40.4697L40.4697 41.5303Z" fill="white"/>
<path d="M49 41L41 49" stroke="white" stroke-width="1.5" stroke-linecap="round" stroke-linejoin="round"/>
<defs>
<clipPath id="clip0">
<rect width="26" height="26" fill="white" transform="translate(13 12)"/>
</clipPath>
</defs>
</svg>
