<svg width="27" height="27" viewBox="0 0 27 27" fill="none" xmlns="http://www.w3.org/2000/svg">
<path d="M12.6309 6.26688C13.9462 6.10661 14.8826 4.91042 14.7223 3.59511C14.562 2.27981 13.3658 1.34347 12.0505 1.50374C10.7352 1.66402 9.79887 2.86021 9.95915 4.17552C10.1194 5.49082 11.3156 6.42716 12.6309 6.26688Z" fill="#7085D1"/>
<path d="M23.5607 7.30796L21.0264 7.10156L22.6228 10.2022C22.7072 10.3661 22.8761 10.4691 23.0604 10.4691H23.5779C23.8874 10.4691 24.1201 10.1868 24.061 9.88304L23.5607 7.30796Z" fill="#7085D1"/>
<path d="M26.8388 5.14798L26.6383 4.97327H25.6646C25.4984 4.97327 25.3636 4.83848 25.3636 4.67221C25.3636 4.509 25.4935 4.37648 25.6555 4.37157C25.3262 4.25946 24.9746 4.21326 24.6242 4.24174L23.1251 4.36382C22.8914 3.91004 21.2941 0.807785 21.0382 0.310869C20.9399 0.119971 20.7432 0 20.5285 0H19.8346C19.4742 0 19.2031 0.328746 19.2719 0.682594C19.4287 1.48953 19.8737 3.77974 20.036 4.61536L18.0988 4.77314L17.8748 4.15969C17.7872 3.91974 17.5567 3.75854 17.3012 3.75854H15.6558C15.5603 3.75854 15.5088 3.81992 15.4911 3.84634C15.4734 3.87276 15.4361 3.94374 15.4723 4.03202L15.9782 5.26716C16.1842 5.77025 16.6489 6.11017 17.1907 6.15431L24.6242 6.7597C25.9556 6.86807 26.6755 5.95592 26.8388 5.85341C27.0531 5.66673 27.0533 5.33492 26.8388 5.14798Z" fill="#7085D1"/>
<path d="M16.8112 8.7377L13.9687 10.3225L12.7099 8.85826L13.6899 9.59321L13.8024 9.12715C14.0112 8.26278 13.4797 7.39277 12.6153 7.18405L10.3711 6.64204C9.74861 6.4917 9.12329 6.72536 8.74408 7.19069C8.63898 7.19464 7.57438 7.27301 5.09048 7.44867C4.51325 7.48975 4.06949 7.97596 4.0812 8.55456C4.09834 9.401 4.14638 11.7706 4.16299 12.5904C3.95759 12.6511 3.78858 12.8157 3.7341 13.0382L3.57358 13.6942C3.56941 13.7111 3.56651 13.7281 3.56382 13.745L2.44348 13.4709C1.96692 13.3542 1.48419 13.6454 1.36707 14.124L1.03199 15.493C1.37229 15.4454 1.72935 15.4855 2.06923 15.6281L4.69555 16.7298L6.50234 13.825L6.52755 13.722C6.58772 13.4762 6.49153 13.2283 6.30316 13.0826C6.32895 12.9861 6.34255 12.8848 6.34039 12.78C6.32737 12.1368 6.29008 10.2959 6.27484 9.54322L8.0445 9.4174C7.88171 10.0914 6.91419 14.0975 6.79807 14.5785L4.96888 17.575L1.80866 16.2492C1.14442 15.9706 0.380407 16.2832 0.101864 16.9472C-0.176731 17.6113 0.135773 18.3754 0.799804 18.654L4.99345 20.4132C5.58402 20.661 6.273 20.4437 6.61081 19.8902L8.82782 16.2583C8.85814 16.2627 9.06881 16.2931 9.84048 16.4043L11.2928 20.2663L10.8434 25.5864C10.7828 26.304 11.3154 26.9349 12.033 26.9955C12.75 27.0561 13.3813 26.524 13.442 25.806L13.9162 20.1926C13.9326 19.9995 13.9056 19.8052 13.8374 19.6238L12.2724 15.4623L12.8023 13.2682C12.6551 13.158 12.5279 13.0161 12.4326 12.8452C12.4303 12.8411 12.4246 12.8307 12.4224 12.8266L11.055 10.2809L12.8946 12.4207C13.2303 12.8113 13.7977 12.9164 14.2533 12.6624L17.8739 10.6438C18.4002 10.3503 18.589 9.68576 18.2955 9.15942C18.0021 8.63308 17.3376 8.44424 16.8112 8.7377ZM5.75509 14.2164L4.19094 13.8336L4.31128 13.3418C4.63306 13.9027 5.36507 14.0578 5.88477 13.6866L5.75509 14.2164Z" fill="#7085D1"/>
</svg>
