<svg width="19" height="20" viewBox="0 0 19 20" fill="none" xmlns="http://www.w3.org/2000/svg">
<path d="M5.72222 6.68421H2.88889C2.38792 6.68421 1.90748 6.88383 1.55324 7.23916C1.19901 7.5945 1 8.07643 1 8.57894V17.1053C1 17.6078 1.19901 18.0897 1.55324 18.445C1.90748 18.8004 2.38792 19 2.88889 19H16.1111C16.6121 19 17.0925 18.8004 17.4468 18.445C17.801 18.0897 18 17.6078 18 17.1053V8.57894C18 8.07643 17.801 7.5945 17.4468 7.23916C17.0925 6.88383 16.6121 6.68421 16.1111 6.68421H13.2778M12.3333 3.84211L9.5 1M9.5 1L6.66667 3.84211M9.5 1V10.4737" stroke="black" stroke-width="2" stroke-linecap="round" stroke-linejoin="round"/>
</svg>
