<svg width="16" height="16" viewBox="0 0 16 16" fill="none" xmlns="http://www.w3.org/2000/svg">
<path d="M7.70366 6.02421L9.83499 7.44554C9.9263 7.50643 10.0012 7.58957 10.0529 7.68633C10.1047 7.78309 10.1318 7.89114 10.1318 8.00088C10.1318 8.11062 10.1047 8.21866 10.0529 8.31542C10.0012 8.41218 9.9263 8.49466 9.83499 8.55554L7.70366 9.97688C7.60326 10.0439 7.48656 10.0823 7.366 10.0882C7.24545 10.094 7.12557 10.0671 7.01915 10.0101C6.91273 9.95319 6.82376 9.86842 6.76174 9.76488C6.69972 9.66134 6.66698 9.54291 6.66699 9.42221V6.58021C6.66673 6.4594 6.69931 6.34079 6.76123 6.23706C6.82315 6.13333 6.9121 6.04837 7.01856 5.99127C7.12502 5.93417 7.245 5.90708 7.36567 5.91288C7.48634 5.91868 7.60317 5.95716 7.70366 6.02421Z" stroke="#F05050" stroke-width="1.33333" stroke-linecap="round" stroke-linejoin="round"/>
<path d="M13.5433 10.2961C13.8448 9.56815 14 8.78793 14 8C14 6.4087 13.3679 4.88258 12.2426 3.75736C11.1174 2.63214 9.5913 2 8 2C6.4087 2 4.88258 2.63214 3.75736 3.75736C2.63214 4.88258 2 6.4087 2 8C2 8.78793 2.15519 9.56815 2.45672 10.2961C2.75825 11.0241 3.20021 11.6855 3.75736 12.2426C4.31451 12.7998 4.97595 13.2417 5.7039 13.5433C6.43185 13.8448 7.21207 14 8 14C8.78793 14 9.56815 13.8448 10.2961 13.5433C11.0241 13.2417 11.6855 12.7998 12.2426 12.2426C12.7998 11.6855 13.2417 11.0241 13.5433 10.2961Z" stroke="#F05050" stroke-width="1.33333" stroke-linecap="round" stroke-linejoin="round"/>
</svg>
