<svg width="55" height="55" viewBox="0 0 55 55" fill="none" xmlns="http://www.w3.org/2000/svg">
<circle cx="25" cy="25" r="24" fill="#F5F5F5" stroke="#FF6C6C" stroke-width="2"/>
<g clip-path="url(#clip0)">
<path d="M27.8295 21.4996L38 15.6277L36.7344 13.4355L35.0194 14.4257L34.5415 13.598L33.8705 13.9855L34.3483 14.8131L28.6442 18.1064L29.0317 18.7775L36.4508 14.494L36.9415 15.3441L19.7052 25.2954L19.561 24.8227C19.4729 24.5336 19.594 24.2262 19.8558 24.0751L28.3606 19.1648L27.9732 18.4938L24.5358 20.4783L24.1388 19.7907L24.4101 19.7791L28.0192 17.6954L26.3645 14.8294L22.7486 16.917L22.3289 17.6365L19.3686 19.3458L18.476 19.3839L16.388 20.5894L18.0427 23.4554L20.0961 22.2698L20.3136 21.9473L20.733 22.6738L19.4683 23.404C18.8925 23.7364 18.6259 24.4127 18.8198 25.0487L19.0166 25.6941C18.2291 26.1613 17.6654 26.9034 17.4281 27.7894L17.2346 28.5113L12.4524 31.2723C12.2433 31.3931 12.0937 31.588 12.0312 31.8213C11.9687 32.0546 12.0008 32.2981 12.1215 32.5072L14.2028 36.1121C14.3509 36.3687 14.6157 36.5365 14.9111 36.561C14.936 36.5631 14.961 36.5641 14.9857 36.5641C15.2488 36.5641 15.5002 36.4492 15.6725 36.248L16.7939 35.0842L16.2359 34.5465L15.1054 35.7197L15.0853 35.7422C15.0479 35.7876 15.0003 35.791 14.975 35.7888C14.9498 35.7867 14.9032 35.7757 14.8738 35.7247L12.7925 32.1198C12.7693 32.0795 12.7744 32.0411 12.7796 32.0219C12.7848 32.0025 12.7995 31.9667 12.8398 31.9434L17.4255 29.2959L17.7742 29.8999L18.4452 29.5124L17.983 28.7119L18.1764 27.99C18.3638 27.2905 18.8124 26.7058 19.4395 26.3435L26.1594 22.4638L27.1584 21.887L27.7412 22.8964C28.0616 23.4515 27.8708 24.1638 27.3158 24.4842L20.7196 28.2925L19.5812 31.0749L16.7955 33.9659L17.3535 34.5036L20.2423 31.5058L20.6773 30.4424C21.0261 30.7282 21.4636 30.8828 21.9094 30.8828C22.2378 30.8828 22.5705 30.7993 22.8748 30.6236L23.5402 30.2394C23.9884 29.9806 24.3089 29.5629 24.4429 29.0631C24.5768 28.5632 24.5081 28.0412 24.2493 27.5931L24.0572 27.2604L27.7034 25.1552C28.6284 24.6212 28.9465 23.4341 28.4125 22.5089L27.8295 21.4996ZM20.0093 19.8706L22.47 18.4499L22.9365 19.258L20.4759 20.6787L20.0093 19.8706ZM26.0809 15.888L26.9607 17.4118L24.1873 19.0131L23.7018 19.0339L23.0597 17.9217L23.3142 17.4853L26.0809 15.888ZM19.5536 21.6883L18.3263 22.3969L17.4465 20.873L18.6988 20.1499L19.2619 20.1258L19.8825 21.2006L19.5536 21.6883ZM20.8633 21.3498L23.3239 19.9291L23.8648 20.8658L21.4041 22.2864L20.8633 21.3498ZM23.5781 27.9806C23.7334 28.2495 23.7747 28.5627 23.6943 28.8626C23.6139 29.1625 23.4216 29.4131 23.1527 29.5684L22.4873 29.9526C21.9819 30.2443 21.3462 30.1121 20.9946 29.667L21.2393 29.069L22.2298 29.4803L22.5269 28.7647L21.9015 28.505L23.3861 27.6478L23.5781 27.9806Z" fill="black"/>
<path d="M23.1052 26.076L22.7178 25.405L23.3888 25.0175L23.7763 25.6886L23.1052 26.076ZM24.4474 25.3011L24.0599 24.6301L24.731 24.2427L25.1184 24.9137L24.4474 25.3011ZM25.7895 24.5263L25.4021 23.8552L26.0731 23.4678L26.4606 24.1388L25.7895 24.5263Z" fill="black"/>
</g>
<circle cx="45" cy="45" r="10" fill="#F05050"/>
<path d="M41.5303 40.4697C41.2374 40.1768 40.7626 40.1768 40.4697 40.4697C40.1768 40.7626 40.1768 41.2374 40.4697 41.5303L41.5303 40.4697ZM48.4697 49.5303C48.7626 49.8232 49.2374 49.8232 49.5303 49.5303C49.8232 49.2374 49.8232 48.7626 49.5303 48.4697L48.4697 49.5303ZM40.4697 41.5303L48.4697 49.5303L49.5303 48.4697L41.5303 40.4697L40.4697 41.5303Z" fill="white"/>
<path d="M49 41L41 49" stroke="white" stroke-width="1.5" stroke-linecap="round" stroke-linejoin="round"/>
<defs>
<clipPath id="clip0">
<rect width="26" height="26" fill="white" transform="translate(12 12)"/>
</clipPath>
</defs>
</svg>
